<?xml version="1.0" standalone="no"?>
<!DOCTYPE svg PUBLIC "-//W3C//DTD SVG 20010904//EN"
 "http://www.w3.org/TR/2001/REC-SVG-20010904/DTD/svg10.dtd">
<svg version="1.0" xmlns="http://www.w3.org/2000/svg"
 width="300.000000pt" height="300.000000pt" viewBox="0 0 300.000000 300.000000"
 preserveAspectRatio="xMidYMid meet">
<metadata>
Created by potrace 1.10, written by Peter Selinger 2001-2011
</metadata>
<g transform="translate(0.000000,300.000000) scale(0.100000,-0.100000)"
fill="#000000" stroke="none">
<path d="M1325 2924 c-178 -27 -327 -74 -478 -151 -386 -197 -658 -556 -753
-993 -27 -121 -27 -439 0 -560 95 -436 368 -796 753 -993 119 -61 243 -105
373 -133 121 -27 439 -27 560 0 575 125 1001 551 1126 1126 27 121 27 439 0
560 -123 568 -540 991 -1105 1121 -64 15 -132 21 -266 24 -99 2 -193 1 -210
-1z m458 -35 c163 -33 194 -48 307 -156 87 -83 160 -168 160 -187 0 -3 -31
-22 -70 -41 -38 -19 -114 -65 -167 -102 -54 -36 -102 -66 -108 -66 -5 0 -50
16 -100 36 -104 41 -270 80 -433 101 -63 8 -115 16 -116 18 -2 1 -31 45 -66
97 -35 52 -81 114 -102 137 l-39 43 23 15 c63 41 184 84 333 117 97 22 232 18
378 -12z m-503 -4 c-47 -13 -134 -49 -195 -79 -60 -30 -133 -64 -162 -75 -73
-29 -223 -105 -311 -158 -40 -25 -76 -43 -78 -40 -7 6 110 100 191 154 134 90
320 167 488 202 130 28 170 25 67 -4z m862 -121 c253 -127 495 -369 622 -622
63 -126 64 -122 -8 -87 -51 24 -70 41 -116 104 -30 42 -125 145 -210 231 -86
85 -172 178 -192 205 -20 28 -77 90 -126 137 -94 90 -91 93 30 32z m-1656
-323 c-50 -98 -83 -202 -94 -293 -9 -70 -14 -82 -51 -124 -87 -99 -182 -275
-217 -401 -10 -37 -23 -63 -30 -63 -17 0 -11 81 17 222 36 182 111 359 221
519 59 87 177 224 185 215 2 -2 -12 -36 -31 -75z m1015 -2 c126 -22 263 -61
341 -96 49 -22 59 -31 73 -67 8 -22 53 -144 99 -271 l85 -229 -76 -96 c-42
-52 -142 -161 -223 -241 l-146 -146 -309 52 c-244 42 -311 57 -322 71 -34 46
-106 202 -137 295 -31 91 -56 226 -56 296 0 31 79 123 263 307 l159 158 72 -7
c39 -3 119 -15 177 -26z m-873 -401 l192 -12 0 -56 c0 -129 56 -313 148 -485
l48 -90 -65 -99 c-36 -55 -98 -167 -139 -249 l-74 -150 -113 7 c-205 12 -292
49 -356 150 -52 82 -96 205 -127 358 l-26 126 23 79 c42 145 112 276 209 391
35 42 49 52 66 48 12 -4 108 -12 214 -18z m2130 3 c20 -10 47 -30 59 -43 24
-27 55 -120 80 -246 24 -121 23 -384 -1 -506 -21 -107 -64 -248 -75 -244 -4 2
-32 16 -63 32 l-55 29 -12 146 c-13 160 -39 305 -70 394 -20 57 -20 57 -1 113
11 31 31 111 45 178 41 192 32 178 93 147z m-288 -367 c63 -14 118 -31 122
-37 33 -50 72 -252 87 -452 l10 -130 -113 -150 c-127 -167 -234 -276 -292
-295 -61 -21 -260 -7 -367 24 -94 28 -167 61 -167 75 0 86 -51 443 -75 523
l-14 47 152 153 c84 84 185 194 225 244 l72 91 123 -34 c67 -18 174 -45 237
-59z m-2100 -731 c77 -38 160 -53 290 -53 l95 -1 85 -112 c95 -125 211 -245
285 -296 l50 -34 0 -138 0 -138 -45 -6 c-137 -18 -406 119 -607 309 -91 85
-218 247 -203 256 5 3 3 24 -6 50 -18 51 -32 205 -18 199 5 -2 38 -18 74 -36z
m1452 -292 c106 -42 210 -61 342 -61 l116 0 -6 -47 c-9 -83 -24 -145 -44 -190
-19 -43 -19 -43 1 -43 39 0 17 -19 -78 -68 -211 -108 -397 -154 -628 -156
-163 -1 -228 11 -296 57 -33 22 -34 26 -43 106 -5 49 -5 106 0 139 l9 55 173
63 c189 68 278 108 332 147 19 15 38 26 42 27 3 0 39 -13 80 -29z"/>
</g>
</svg>
