<?xml version="1.0" standalone="no"?>
<!DOCTYPE svg PUBLIC "-//W3C//DTD SVG 20010904//EN"
 "http://www.w3.org/TR/2001/REC-SVG-20010904/DTD/svg10.dtd">
<svg version="1.0" xmlns="http://www.w3.org/2000/svg"
 width="2048.000000pt" height="2048.000000pt" viewBox="0 0 2048.000000 2048.000000"
 preserveAspectRatio="xMidYMid meet">
<metadata>
Created by potrace 1.16, written by Peter Selinger 2001-2019
</metadata>
<g transform="translate(0.000000,2048.000000) scale(0.100000,-0.100000)"
fill="#000000" stroke="none">
<path d="M9890 20019 c-2091 -71 -4101 -813 -5740 -2117 -2092 -1665 -3411
-4102 -3654 -6752 -54 -581 -54 -1240 0 -1820 113 -1226 452 -2405 1009 -3505
1076 -2124 2884 -3783 5090 -4670 1565 -630 3302 -842 4990 -609 2751 379
5207 1911 6767 4219 925 1370 1483 2931 1632 4570 54 585 54 1234 0 1815 -134
1457 -594 2864 -1348 4120 -1561 2603 -4244 4339 -7246 4689 -265 31 -525 50
-835 61 -304 11 -343 10 -665 -1z m1025 -119 c720 -55 1361 -168 2010 -355
222 -63 528 -166 540 -180 6 -7 80 -67 165 -135 811 -646 1390 -1252 1739
-1823 l41 -67 -27 -11 c-561 -210 -1324 -663 -2186 -1296 -92 -67 -174 -123
-181 -123 -7 0 -82 33 -167 74 -714 343 -1663 620 -2733 796 -320 52 -676 101
-1096 150 -190 22 -366 43 -392 46 l-47 6 -182 286 c-513 803 -789 1175 -1118
1501 -128 126 -134 134 -115 148 67 50 327 196 484 272 611 296 1359 515 2385
697 l190 34 275 -4 c151 -3 338 -10 415 -16z m-1570 -50 c-1010 -231 -1715
-503 -2260 -871 -119 -80 -145 -93 -315 -154 -957 -347 -1857 -797 -2932
-1466 -113 -71 -210 -129 -216 -129 -5 0 -16 8 -25 18 -16 17 -13 21 41 73 31
31 100 94 152 140 636 569 1353 1056 2110 1434 1123 561 2239 877 3515 994
152 14 147 11 -70 -39z m4790 -743 c1067 -464 2088 -1162 2936 -2007 921 -918
1632 -1981 2129 -3186 34 -81 60 -148 58 -149 -2 -2 -37 24 -78 57 -203 165
-460 294 -681 342 l-76 17 -104 152 c-279 406 -580 781 -987 1230 -312 345
-1091 1110 -1645 1617 -125 114 -156 149 -199 220 -342 571 -831 1106 -1570
1722 -93 77 -168 142 -168 143 0 4 246 -97 385 -158z m-10653 -2095 c-101
-185 -285 -562 -365 -752 -286 -676 -445 -1316 -487 -1970 l-12 -174 -136
-141 c-586 -602 -1062 -1365 -1419 -2275 -87 -221 -220 -624 -279 -847 l-49
-181 -45 -7 c-25 -3 -63 -8 -84 -11 l-39 -6 7 143 c38 814 216 1736 489 2544
474 1397 1226 2619 2276 3697 l164 169 27 -26 27 -26 -75 -137z m5380 -162
c370 -43 779 -96 1008 -131 1102 -168 1971 -401 2741 -735 258 -112 365 -169
377 -201 25 -73 635 -1759 719 -1988 161 -442 545 -1464 617 -1646 7 -16 -85
-140 -342 -464 -490 -615 -947 -1127 -1552 -1739 -402 -406 -937 -915 -1148
-1091 l-33 -27 -152 26 c-1378 239 -2202 380 -3321 566 -396 66 -720 121 -721
122 -1 2 -45 75 -97 163 -656 1104 -1062 2153 -1207 3115 -41 275 -55 464 -55
770 l-1 296 109 134 c544 669 1250 1402 2619 2718 81 78 154 142 162 142 7 0
132 -14 277 -30z m9791 -2835 c212 -80 422 -217 624 -408 l71 -68 76 -227
c337 -1016 496 -2000 496 -3072 0 -1003 -141 -1937 -435 -2885 -44 -140 -183
-545 -191 -554 -2 -2 -61 32 -131 76 -237 148 -412 239 -623 324 l-95 38 -12
203 c-76 1317 -175 2132 -347 2859 -66 281 -191 672 -286 896 -27 65 -50 123
-50 128 0 6 18 55 40 108 159 389 287 891 530 2083 61 297 112 544 114 551 5
13 114 -12 219 -52z m-15862 30 c46 -7 183 -28 304 -44 491 -68 775 -89 1555
-116 401 -15 848 -39 915 -50 l30 -5 1 -257 c5 -977 284 -2004 854 -3143 128
-256 197 -384 367 -678 l135 -234 -23 -32 c-679 -926 -1155 -1770 -1726 -3061
-63 -143 -116 -261 -117 -262 -7 -8 -1138 19 -1276 32 -640 57 -1108 203
-1505 470 -221 148 -278 210 -459 501 -465 749 -767 1679 -1011 3117 l-37 217
32 138 c127 537 357 1166 617 1686 313 625 671 1137 1107 1584 82 83 150 152
151 152 1 0 40 -7 86 -15z m12323 -2174 c948 -256 1040 -281 1346 -355 449
-110 809 -187 1095 -234 l110 -19 48 -114 c61 -143 173 -477 227 -674 151
-557 263 -1280 335 -2155 36 -445 76 -1110 68 -1123 -36 -59 -928 -1257 -1093
-1467 -611 -784 -1096 -1272 -1517 -1528 -90 -55 -92 -55 -327 -77 -472 -45
-1001 -37 -1451 21 -578 74 -1157 236 -1705 477 -169 74 -278 127 -288 141
-10 12 -11 27 -83 769 -57 593 -107 1056 -144 1332 -88 656 -202 1224 -346
1723 -27 96 -49 178 -47 182 2 5 59 59 128 121 652 584 1385 1324 1951 1969
294 336 680 808 894 1093 44 58 84 106 89 107 5 0 324 -85 710 -189z m-12964
-5217 c142 -105 229 -158 395 -239 311 -153 629 -243 1040 -294 276 -35 416
-42 945 -47 283 -2 538 -7 566 -10 l52 -5 105 -132 c57 -73 232 -299 387 -502
551 -720 770 -981 1120 -1339 356 -363 766 -705 1178 -984 91 -62 122 -88 118
-100 -109 -370 -119 -920 -31 -1637 8 -66 17 -132 20 -147 4 -25 1 -29 -45
-42 -27 -8 -107 -25 -177 -37 -112 -18 -154 -21 -338 -16 -310 7 -539 54 -967
197 -232 78 -317 114 -616 264 -1385 691 -2605 1730 -3518 2996 -97 133 -254
365 -254 374 0 3 26 13 58 22 31 10 58 19 60 20 2 1 -17 59 -42 128 -202 557
-265 1057 -195 1548 10 69 13 76 28 65 9 -6 59 -44 111 -83z m9858 -2028 c233
-117 620 -269 905 -355 426 -129 821 -206 1297 -253 270 -26 1111 -14 1299 19
l33 6 -6 -114 c-19 -317 -39 -510 -77 -734 -66 -388 -196 -761 -357 -1025
l-40 -65 26 -6 c15 -4 65 -7 112 -8 47 -1 122 -4 168 -8 l82 -6 -132 -82
c-1385 -856 -2939 -1338 -4603 -1426 -248 -13 -968 -6 -1130 10 -375 40 -906
199 -1157 348 -90 54 -232 165 -259 203 -13 18 -25 80 -43 225 -72 572 -81
1003 -30 1356 20 136 59 299 76 315 25 23 518 205 1088 401 448 154 487 168
680 238 676 245 1150 464 1553 718 133 83 381 259 392 277 11 17 33 11 123
-34z"/>
</g>
</svg>
