<?xml version="1.0" standalone="no"?>
<!DOCTYPE svg PUBLIC "-//W3C//DTD SVG 20010904//EN"
 "http://www.w3.org/TR/2001/REC-SVG-20010904/DTD/svg10.dtd">
<svg version="1.0" xmlns="http://www.w3.org/2000/svg"
 width="300.000000pt" height="300.000000pt" viewBox="0 0 300.000000 300.000000"
 preserveAspectRatio="xMidYMid meet">
<metadata>
Created by potrace 1.10, written by Peter Selinger 2001-2011
</metadata>
<g transform="translate(0.000000,300.000000) scale(0.100000,-0.100000)"
fill="#000000" stroke="none">
<path d="M1399 2928 c-349 -21 -653 -161 -910 -417 -279 -280 -419 -614 -419
-1002 0 -247 49 -452 161 -670 168 -326 461 -579 804 -694 151 -51 240 -66
422 -72 135 -4 193 -2 275 12 399 66 758 305 980 651 91 141 175 359 202 523
21 124 21 358 0 482 -49 291 -185 552 -403 770 -305 304 -678 444 -1112 417z
m226 -18 c111 -10 299 -51 345 -75 63 -32 282 -261 279 -291 0 -5 -39 -28 -87
-52 -48 -23 -124 -69 -169 -101 l-82 -59 -68 28 c-131 55 -302 94 -543 125
-44 6 -46 8 -105 97 -32 50 -79 112 -102 138 -49 54 -48 56 38 93 80 36 179
67 277 87 107 23 86 22 217 10z m-345 -25 c-95 -26 -186 -63 -230 -95 -16 -11
-67 -36 -113 -55 -110 -44 -231 -105 -329 -166 -43 -26 -78 -44 -78 -40 0 5
30 33 67 64 182 147 393 247 629 297 124 26 156 23 54 -5z m897 -141 c269
-146 505 -403 622 -677 l21 -48 -30 21 c-17 12 -45 26 -63 31 -24 7 -46 30
-87 87 -30 42 -125 146 -211 232 -85 85 -170 176 -187 202 -36 52 -126 148
-187 197 l-40 33 40 -17 c22 -9 77 -36 122 -61z m-1103 -64 c52 -58 128 -176
124 -193 -1 -8 -92 -106 -201 -217 l-197 -202 -168 10 c-93 6 -176 14 -185 18
-11 4 -17 17 -17 39 0 49 45 196 88 283 41 84 36 80 229 184 101 54 249 118
274 118 9 0 33 -18 53 -40z m-588 -239 c-48 -95 -84 -206 -95 -297 -8 -68 -13
-78 -55 -125 -88 -98 -183 -277 -218 -411 -13 -52 -44 -70 -34 -20 2 15 7 54
11 87 15 150 85 365 167 513 61 111 241 342 255 328 2 -2 -12 -36 -31 -75z
m1871 -33 c98 -94 235 -245 276 -305 l28 -41 -34 -153 c-44 -192 -50 -209 -79
-209 -41 1 -399 97 -413 111 -18 19 -187 480 -181 495 11 28 264 184 299 184
9 0 56 -37 104 -82z m-965 46 c192 -26 342 -65 461 -118 l52 -23 34 -99 c19
-54 63 -175 97 -268 l63 -169 -86 -106 c-48 -58 -150 -168 -226 -244 -112
-111 -142 -136 -160 -132 -12 3 -150 27 -307 54 l-285 48 -34 59 c-95 166
-158 363 -162 503 l-2 81 49 57 c80 95 362 373 378 373 9 0 66 -7 128 -16z
m-761 -416 l186 -12 6 -90 c8 -143 65 -316 151 -467 l42 -74 -47 -70 c-59 -89
-145 -247 -189 -346 l-34 -77 -106 5 c-138 6 -196 18 -271 55 -49 25 -68 41
-97 87 -45 70 -88 179 -118 301 -38 154 -39 193 -9 285 40 123 108 252 181
343 60 75 70 83 93 78 14 -3 110 -11 212 -18z m2145 -9 c51 -31 62 -51 93
-170 68 -263 61 -518 -20 -792 -11 -38 -24 -67 -28 -65 -4 2 -33 16 -63 32
l-55 30 -7 115 c-9 144 -38 320 -70 413 -23 71 -24 72 -6 123 10 29 30 110 45
181 36 175 33 166 58 158 12 -3 36 -15 53 -25z m-396 -333 c52 -14 121 -29
152 -36 l58 -11 24 -77 c28 -90 53 -240 65 -402 l9 -115 -101 -135 c-109 -147
-211 -258 -267 -293 -31 -20 -48 -22 -160 -21 -137 0 -250 22 -353 68 l-55 24
-7 69 c-17 169 -47 374 -64 439 l-18 72 161 163 c88 90 190 201 224 245 l64
82 86 -24 c48 -14 130 -35 182 -48z m-1050 -391 c145 -25 271 -47 280 -50 29
-9 59 -151 84 -390 12 -115 12 -144 1 -160 -19 -30 -160 -97 -340 -161 l-159
-56 -35 18 c-52 28 -207 185 -293 298 -88 115 -89 94 2 272 77 149 158 274
178 274 10 0 136 -20 282 -45z m-1092 -277 c16 -26 20 -44 15 -71 -3 -20 -9
-37 -14 -37 -8 0 -60 129 -78 195 -20 75 -10 80 23 13 19 -37 43 -82 54 -100z
m2507 -32 c19 -8 35 -22 35 -31 0 -24 -77 -171 -133 -255 -102 -151 -397 -422
-363 -334 4 9 13 57 21 107 14 84 17 93 47 116 59 43 164 160 259 287 52 68
95 124 97 124 1 0 18 -7 37 -14z m-2324 -78 c43 -17 84 -22 194 -26 l140 -4
85 -111 c98 -127 213 -246 288 -297 48 -32 51 -37 45 -65 -8 -37 -7 -174 2
-214 6 -29 5 -30 -37 -36 -143 -21 -423 124 -628 325 -95 93 -204 231 -190
240 5 3 2 26 -7 50 -9 25 -18 83 -21 129 l-5 83 40 -26 c22 -15 65 -36 94 -48z
m1445 -282 c114 -40 264 -61 357 -51 l59 7 -7 -48 c-11 -88 -25 -146 -44 -190
l-19 -43 26 -3 c24 -3 17 -8 -48 -45 -173 -96 -369 -155 -579 -174 -188 -16
-338 9 -402 67 -20 18 -33 170 -21 244 l7 45 120 42 c210 74 298 112 360 153
33 21 67 37 75 35 8 -3 60 -20 116 -39z"/>
</g>
</svg>